<svg xmlns="http://www.w3.org/2000/svg" width="203" height="140" fill="none" viewBox="0 0 203 140">
  <path stroke="#fff" stroke-linecap="round" stroke-linejoin="round" stroke-miterlimit="1.5" d="M195.375 51.965c-4.935-14.012-11.553-33.422-20.012-45.36C135.008 24.427 94.907 42.493 55.368 62.13 40.363 69.58 25.347 80.068 9.46 85.425c6.18 11.693 11.805 23.626 17.881 35.346 2.488 4.799 6.688 9.204 8.46 14.336 44.542-21.332 87.362-46.425 132.776-65.981 8.705-3.748 16.76-9.116 25.813-12.117-23.502 8.704-45.833 21.223-68.352 32.149-15.056 7.305-31.278 12.134-46.425 19.384-14.322 6.856-27.334 16.46-41.753 23.003-11.537-15.574-24.268-30.962-34.67-47.34 9.045-4.482 17.571-10.034 26.654-14.392 48.35-23.196 97.142-45.291 146.542-66.1 7.159 15.459 10.538 32.038 16.769 47.74C184.41 36.197 180.188 18.788 171.85 3.4c-6.618 1.424-13.152 5.614-19.28 8.366-16.147 7.252-32.153 14.377-47.943 22.389C84.767 44.233 65.15 54.574 45.43 64.939 31.913 72.044 15.98 78.135 3.934 87.784c9.298 16.136 18.863 32.155 28.344 48.168"/>
</svg>
