<svg xmlns="http://www.w3.org/2000/svg" width="133" height="75" fill="none" viewBox="0 0 133 75">
  <path fill="#fff" d="M12.48 72.487.6 58.783l3.079-1.446 8.3 10.273.146-.069-2.414-13.037 2.8-1.315 8.504 10.186.14-.065-2.61-12.955 3.077-1.445 2.962 17.892-2.824 1.326-8.37-9.6-.123.059 2.037 12.574-2.824 1.326Zm22.492-10.281c-1.157.543-2.28.76-3.368.65-1.087-.111-2.08-.514-2.978-1.21-.893-.698-1.627-1.66-2.202-2.883-.575-1.224-.847-2.405-.816-3.543.035-1.14.358-2.164.967-3.072.61-.908 1.493-1.633 2.65-2.177 1.157-.543 2.28-.76 3.367-.65 1.088.111 2.08.518 2.975 1.221.9.701 1.638 1.663 2.213 2.887.575 1.224.843 2.404.805 3.54-.033 1.132-.354 2.152-.964 3.06-.609.908-1.492 1.633-2.65 2.177Zm-1.036-2.245c.628-.294 1.071-.713 1.331-1.256.258-.547.351-1.163.282-1.846-.065-.685-.266-1.388-.604-2.108-.34-.725-.754-1.33-1.24-1.818-.484-.495-1.019-.818-1.605-.97-.585-.151-1.192-.08-1.82.215-.643.302-1.095.728-1.358 1.278-.257.548-.352 1.167-.286 1.857.07.683.275 1.387.616 2.112.338.72.748 1.325 1.229 1.815.486.487 1.022.807 1.608.958.589.144 1.204.065 1.847-.237Zm8.975-1.767-5.566-11.849 2.708-1.271.928 1.974.123-.058c-.105-.785.017-1.486.368-2.103a3.376 3.376 0 0 1 1.548-1.414c.155-.073.33-.146.528-.22.2-.081.37-.14.511-.174l1.207 2.569a3.244 3.244 0 0 0-.614.156c-.269.082-.522.18-.758.29a3.12 3.12 0 0 0-1.217.977c-.3.404-.475.854-.525 1.348-.05.495.043.994.28 1.498l3.271 6.966-2.792 1.311Zm3.985-21.155 7.42 15.798-2.792 1.312-7.42-15.799 2.792-1.311Zm14.787 12.593c-.931.437-1.877.589-2.837.456-.96-.133-1.867-.554-2.721-1.264-.855-.71-1.588-1.715-2.199-3.016-.618-1.317-.924-2.53-.917-3.637.01-1.116.276-2.079.8-2.89a5.015 5.015 0 0 1 2.146-1.865c.694-.326 1.32-.476 1.879-.45.556.022 1.042.136 1.46.342.414.2.76.411 1.04.631l.116-.054-2.776-5.909 2.8-1.315 7.421 15.798-2.746 1.29-.877-1.867-.17.08a5.27 5.27 0 0 1-.194 1.212c-.122.447-.354.888-.695 1.325-.342.436-.852.814-1.53 1.133Zm-.297-2.657c.591-.278 1.02-.675 1.287-1.189.264-.52.37-1.118.315-1.796-.055-.677-.262-1.399-.622-2.165-.36-.767-.78-1.382-1.262-1.846-.477-.467-.997-.759-1.561-.877-.559-.12-1.14-.04-1.74.243-.623.292-1.066.698-1.33 1.218-.265.52-.369 1.114-.312 1.784.058.67.26 1.373.605 2.108.347.74.763 1.352 1.247 1.834.487.475 1.017.781 1.59.92.576.131 1.17.053 1.783-.235Zm23.603-21.322-2.885 1.355a3.966 3.966 0 0 0-1.046-1.043 3.736 3.736 0 0 0-1.268-.554 3.801 3.801 0 0 0-1.398-.05c-.479.063-.96.207-1.444.434-.859.403-1.518.977-1.979 1.72-.463.739-.688 1.61-.674 2.615.011.999.296 2.092.853 3.28.568 1.209 1.234 2.14 1.999 2.79.767.645 1.578 1.023 2.435 1.136.859.105 1.715-.043 2.569-.444a5.079 5.079 0 0 0 1.24-.809c.356-.324.64-.687.854-1.088a3.797 3.797 0 0 0 .312-2.764l2.892-1.34c.245.802.341 1.616.29 2.443a6.884 6.884 0 0 1-.577 2.4 7.114 7.114 0 0 1-1.47 2.121c-.641.64-1.432 1.182-2.373 1.624-1.389.652-2.78.913-4.171.782-1.393-.131-2.687-.656-3.885-1.575-1.197-.919-2.195-2.227-2.992-3.924-.8-1.702-1.167-3.306-1.102-4.812.063-1.51.488-2.844 1.276-3.999.789-1.154 1.872-2.056 3.25-2.703a8.68 8.68 0 0 1 2.627-.782 6.94 6.94 0 0 1 2.532.139 6.394 6.394 0 0 1 2.277 1.058c.707.503 1.326 1.166 1.858 1.99Zm2.786-7.815 7.42 15.799-2.792 1.311-7.42-15.799 2.792-1.311Zm13.814 13.087c-.751.353-1.49.537-2.217.552a3.658 3.658 0 0 1-1.985-.537c-.593-.367-1.072-.94-1.437-1.716-.314-.669-.45-1.28-.409-1.833a3.167 3.167 0 0 1 .518-1.523 5.63 5.63 0 0 1 1.164-1.272 12.96 12.96 0 0 1 1.532-1.087c.66-.398 1.194-.727 1.599-.986.403-.265.673-.505.811-.72.14-.223.147-.468.022-.736l-.022-.046c-.273-.58-.657-.95-1.151-1.107-.494-.157-1.065-.083-1.713.221-.684.321-1.157.725-1.418 1.212-.256.484-.358.962-.306 1.434l-2.781.854c-.133-.817-.076-1.578.17-2.283a4.902 4.902 0 0 1 1.221-1.911c.569-.568 1.267-1.047 2.094-1.435a8.158 8.158 0 0 1 1.8-.6 5.302 5.302 0 0 1 1.862-.066 3.68 3.68 0 0 1 1.709.713c.535.39.987.978 1.356 1.765l3.725 7.93-2.685 1.26-.764-1.627-.093.043a3.77 3.77 0 0 1-.282 1.263c-.171.425-.446.834-.827 1.227-.378.384-.876.722-1.493 1.011Zm-.239-2.392c.561-.263.995-.602 1.303-1.017.305-.42.481-.866.528-1.34a2.515 2.515 0 0 0-.229-1.37l-.656-1.397c-.054.113-.171.25-.353.41a7.068 7.068 0 0 1-.618.489c-.236.167-.471.328-.706.482l-.612.4c-.39.253-.72.52-.989.804a2.054 2.054 0 0 0-.525.906c-.084.315-.041.653.128 1.013.241.514.611.814 1.11.9.498.086 1.038-.007 1.619-.28Zm14.462-15.22-2.416 1.474a2.253 2.253 0 0 0-.718-.548 2.075 2.075 0 0 0-.967-.214c-.364 0-.761.103-1.193.306-.582.273-1.011.628-1.289 1.066-.272.436-.311.853-.118 1.252.157.347.414.568.773.663.364.093.879.067 1.546-.076l2.224-.518c1.235-.285 2.248-.293 3.039-.024.797.266 1.397.822 1.801 1.668.345.748.436 1.51.272 2.283-.161.766-.548 1.487-1.159 2.164-.611.676-1.411 1.246-2.398 1.71-1.451.681-2.76.926-3.93.735-1.172-.197-2.099-.8-2.781-1.81l2.6-1.542c.375.477.827.757 1.356.841.529.085 1.115-.024 1.758-.326.663-.312 1.132-.698 1.405-1.16.278-.463.323-.895.134-1.296a1.162 1.162 0 0 0-.788-.656c-.361-.1-.842-.082-1.442.056l-2.221.525c-1.248.297-2.276.294-3.084-.01-.811-.31-1.417-.899-1.817-1.765-.348-.728-.448-1.453-.298-2.177.153-.73.52-1.411 1.103-2.043.585-.639 1.35-1.18 2.297-1.625 1.388-.652 2.62-.87 3.695-.653 1.08.215 1.952.782 2.616 1.7Zm11.922-5.6-2.415 1.474a2.267 2.267 0 0 0-.719-.548 2.072 2.072 0 0 0-.967-.214c-.363.001-.761.103-1.193.306-.581.273-1.011.629-1.288 1.066-.273.436-.312.853-.119 1.252.157.347.415.568.773.663.364.093.879.068 1.546-.076l2.224-.518c1.235-.284 2.248-.293 3.04-.024.796.266 1.396.822 1.8 1.668.345.748.436 1.51.272 2.283-.161.766-.547 1.488-1.159 2.164-.611.676-1.411 1.246-2.398 1.71-1.45.681-2.76.926-3.93.735-1.172-.197-2.099-.8-2.781-1.81l2.6-1.542c.375.477.827.757 1.356.841.529.085 1.115-.024 1.758-.326.664-.312 1.132-.698 1.405-1.159.278-.463.323-.896.135-1.297a1.165 1.165 0 0 0-.789-.656c-.361-.1-.842-.082-1.442.056l-2.221.525c-1.247.298-2.275.294-3.084-.01-.811-.31-1.416-.898-1.817-1.765-.348-.728-.447-1.453-.297-2.176.152-.731.52-1.412 1.102-2.044.585-.639 1.351-1.18 2.297-1.625 1.389-.652 2.62-.87 3.695-.652 1.08.214 1.952.78 2.616 1.7Z"/>
</svg>
